# MagicaVoxel @ Ephtracy

# group
o stebel

# material
mtllib Idle farmervox-0-stebel.mtl
usemtl palette

# normals
vn -1 0 0
vn 1 0 0
vn 0 0 1
vn 0 0 -1
vn 0 -1 0
vn 0 1 0

# texcoords
vt 0.876953 0.5
vt 0.939453 0.5
vt 0.943359 0.5
vt 0.947266 0.5

# verts
v 6.4 1.1 -0.1
v 6.4 1.1 -0.2
v 6.4 1.3 -0.1
v 6.4 1.3 -0.2
v 6.5 0.4 0.1
v 6.5 0.4 2.23517e-008
v 6.5 0.4 -0.1
v 6.5 0.5 2.23517e-008
v 6.5 0.5 -0.1
v 6.5 0.9 0.1
v 6.5 0.9 2.23517e-008
v 6.5 1 0.1
v 6.5 1 2.23517e-008
v 6.5 1.1 0.1
v 6.5 1.1 2.23517e-008
v 6.5 1.1 -0.1
v 6.5 1.2 2.23517e-008
v 6.5 1.2 -0.1
v 6.5 1.3 0.2
v 6.5 1.3 0.1
v 6.5 1.3 -0.1
v 6.5 1.4 0.4
v 6.5 1.4 0.2
v 6.5 1.4 2.23517e-008
v 6.5 1.4 -0.1
v 6.5 1.5 0.7
v 6.5 1.5 0.4
v 6.5 1.5 0.1
v 6.5 1.5 2.23517e-008
v 6.5 1.6 0.7
v 6.5 1.6 0.6
v 6.5 1.6 0.2
v 6.5 1.6 0.1
v 6.5 1.6 2.23517e-008
v 6.5 1.7 0.6
v 6.5 1.7 0.2
v 6.6 0.4 0.2
v 6.6 0.4 0.1
v 6.6 0.5 0.2
v 6.6 0.5 0.1
v 6.6 0.6 -0.1
v 6.6 0.6 -0.2
v 6.6 0.7 -0.1
v 6.6 0.7 -0.2
v 6.6 0.8 -0.1
v 6.6 0.8 -0.2
v 6.6 0.9 0.1
v 6.6 1 0.2
v 6.6 1 0.1
v 6.6 1.1 0.2
v 6.6 1.1 0.1
v 6.6 1.2 0.2
v 6.6 1.2 0.1
v 6.6 1.3 0.2
v 6.6 1.3 0.1
v 6.6 1.4 0.8
v 6.6 1.4 0.7
v 6.6 1.4 0.6
v 6.6 1.5 0.7
v 6.6 1.5 0.6
v 6.6 1.6 0.8
v 6.6 1.6 0.7
v 6.7 0.8 -0.1
v 6.7 0.8 -0.2
v 6.7 0.9 -0.1
v 6.7 0.9 -0.2
v 6.5 1.1 -0.1
v 6.5 1.1 -0.2
v 6.5 1.2 -0.1
v 6.5 1.2 -0.2
v 6.6 1.3 2.23517e-008
v 6.6 1.3 -0.1
v 6.6 1.4 2.23517e-008
v 6.6 1.4 -0.1
v 6.7 0.4 0.2
v 6.7 0.4 0.1
v 6.7 0.5 0.2
v 6.7 0.5 0.1
v 6.7 0.6 -0.1
v 6.7 0.6 -0.2
v 6.7 0.7 -0.1
v 6.7 0.7 -0.2
v 6.7 1 0.2
v 6.7 1 0.1
v 6.7 1.1 0.2
v 6.7 1.1 0.1
v 6.7 1.2 2.23517e-008
v 6.7 1.2 -0.1
v 6.7 1.2 -0.2
v 6.7 1.3 2.23517e-008
v 6.7 1.3 -0.2
v 6.7 1.4 0.8
v 6.7 1.4 0.7
v 6.7 1.4 0.6
v 6.7 1.5 0.7
v 6.7 1.5 0.6
v 6.7 1.6 0.8
v 6.7 1.6 0.7
v 6.8 0.4 0.1
v 6.8 0.4 -0.1
v 6.8 0.5 0.1
v 6.8 0.5 -0.1
v 6.8 0.6 2.23517e-008
v 6.8 0.6 -0.1
v 6.8 0.8 2.23517e-008
v 6.8 0.8 -0.1
v 6.8 0.9 2.23517e-008
v 6.8 0.9 -0.1
v 6.8 1.1 0.2
v 6.8 1.1 0.1
v 6.8 1.2 2.23517e-008
v 6.8 1.2 -0.1
v 6.8 1.4 0.4
v 6.8 1.4 0.2
v 6.8 1.4 0.1
v 6.8 1.4 2.23517e-008
v 6.8 1.5 0.7
v 6.8 1.5 0.4
v 6.8 1.5 0.2
v 6.8 1.5 0.1
v 6.8 1.5 2.23517e-008
v 6.8 1.6 0.7
v 6.8 1.6 0.6
v 6.8 1.6 0.2
v 6.8 1.6 0.1
v 6.8 1.6 2.23517e-008
v 6.8 1.7 0.6
v 6.8 1.7 0.2
v 6.9 0.6 2.23517e-008
v 6.9 0.6 -0.1
v 6.9 0.7 -0.1
v 6.9 0.7 -0.2
v 6.9 0.8 2.23517e-008
v 6.9 0.8 -0.1
v 6.9 0.9 -0.1
v 6.9 0.9 -0.2
v 6.9 1.4 0.1
v 6.9 1.4 2.23517e-008
v 6.9 1.5 0.2
v 6.9 1.5 0.1
v 6.9 1.5 2.23517e-008
v 6.9 1.6 0.2
v 6.9 1.6 0.1
v 7 1.4 0.2
v 7 1.4 0.1
v 7 1.5 0.2
v 7 1.5 0.1
v 6.6 1.4 0.8
v 6.6 1.6 0.8
v 6.7 1.4 0.8
v 6.7 1.6 0.8
v 6.5 1.5 0.7
v 6.5 1.6 0.7
v 6.6 1.5 0.7
v 6.6 1.6 0.7
v 6.7 1.5 0.7
v 6.7 1.6 0.7
v 6.8 1.5 0.7
v 6.8 1.6 0.7
v 6.5 1.6 0.6
v 6.5 1.7 0.6
v 6.6 1.6 0.6
v 6.7 1.6 0.6
v 6.8 1.6 0.6
v 6.8 1.7 0.6
v 6.5 1.4 0.4
v 6.5 1.5 0.4
v 6.6 1.4 0.4
v 6.6 1.5 0.4
v 6.7 1.4 0.4
v 6.7 1.5 0.4
v 6.8 1.4 0.4
v 6.8 1.5 0.4
v 6.5 1.3 0.2
v 6.5 1.4 0.2
v 6.6 0.4 0.2
v 6.6 0.5 0.2
v 6.6 1 0.2
v 6.6 1.1 0.2
v 6.6 1.2 0.2
v 6.6 1.3 0.2
v 6.6 1.4 0.2
v 6.7 0.4 0.2
v 6.7 0.5 0.2
v 6.7 1 0.2
v 6.7 1.1 0.2
v 6.7 1.2 0.2
v 6.7 1.3 0.2
v 6.7 1.4 0.2
v 6.8 1.1 0.2
v 6.8 1.4 0.2
v 6.8 1.5 0.2
v 6.8 1.6 0.2
v 6.9 1.5 0.2
v 6.9 1.6 0.2
v 7 1.4 0.2
v 7 1.5 0.2
v 6.5 0.4 0.1
v 6.5 0.9 0.1
v 6.5 1 0.1
v 6.5 1.1 0.1
v 6.5 1.3 0.1
v 6.6 0.4 0.1
v 6.6 0.5 0.1
v 6.6 0.9 0.1
v 6.6 1 0.1
v 6.6 1.1 0.1
v 6.6 1.2 0.1
v 6.6 1.3 0.1
v 6.7 0.4 0.1
v 6.7 0.5 0.1
v 6.7 1 0.1
v 6.7 1.1 0.1
v 6.8 0.4 0.1
v 6.8 0.5 0.1
v 6.8 1.1 0.1
v 6.8 0.6 2.23517e-008
v 6.8 0.8 2.23517e-008
v 6.9 0.6 2.23517e-008
v 6.9 0.8 2.23517e-008
v 6.4 1.1 -0.1
v 6.4 1.3 -0.1
v 6.5 1.1 -0.1
v 6.5 1.2 -0.1
v 6.5 1.3 -0.1
v 6.8 0.8 -0.1
v 6.8 0.9 -0.1
v 6.9 0.8 -0.1
v 6.9 0.9 -0.1
v 6.6 1.4 0.6
v 6.6 1.5 0.6
v 6.7 1.4 0.6
v 6.7 1.5 0.6
v 6.5 1.6 0.2
v 6.5 1.7 0.2
v 6.6 1.6 0.2
v 6.7 1.6 0.2
v 6.8 1.6 0.2
v 6.8 1.7 0.2
v 6.8 1.5 0.1
v 6.8 1.6 0.1
v 6.9 1.4 0.1
v 6.9 1.5 0.1
v 6.9 1.6 0.1
v 7 1.4 0.1
v 7 1.5 0.1
v 6.5 1.4 2.23517e-008
v 6.5 1.5 2.23517e-008
v 6.5 1.6 2.23517e-008
v 6.6 1.3 2.23517e-008
v 6.6 1.4 2.23517e-008
v 6.6 1.5 2.23517e-008
v 6.7 1.2 2.23517e-008
v 6.7 1.3 2.23517e-008
v 6.7 1.4 2.23517e-008
v 6.7 1.5 2.23517e-008
v 6.7 1.6 2.23517e-008
v 6.8 1.2 2.23517e-008
v 6.8 1.4 2.23517e-008
v 6.8 1.5 2.23517e-008
v 6.8 1.6 2.23517e-008
v 6.9 1.4 2.23517e-008
v 6.9 1.5 2.23517e-008
v 6.5 0.4 -0.1
v 6.5 0.5 -0.1
v 6.5 1.1 -0.1
v 6.5 1.2 -0.1
v 6.5 1.3 -0.1
v 6.5 1.4 -0.1
v 6.6 0.4 -0.1
v 6.6 0.5 -0.1
v 6.6 0.6 -0.1
v 6.6 0.7 -0.1
v 6.6 0.8 -0.1
v 6.6 0.9 -0.1
v 6.6 1.3 -0.1
v 6.6 1.4 -0.1
v 6.7 0.4 -0.1
v 6.7 0.5 -0.1
v 6.7 0.6 -0.1
v 6.7 0.7 -0.1
v 6.7 0.8 -0.1
v 6.7 0.9 -0.1
v 6.7 1.2 -0.1
v 6.8 0.4 -0.1
v 6.8 0.5 -0.1
v 6.8 0.6 -0.1
v 6.8 0.9 -0.1
v 6.8 1.2 -0.1
v 6.9 0.6 -0.1
v 6.9 0.7 -0.1
v 6.4 1.1 -0.2
v 6.4 1.3 -0.2
v 6.5 1.1 -0.2
v 6.5 1.2 -0.2
v 6.6 0.6 -0.2
v 6.6 0.7 -0.2
v 6.6 0.8 -0.2
v 6.7 0.6 -0.2
v 6.7 0.7 -0.2
v 6.7 0.8 -0.2
v 6.7 0.9 -0.2
v 6.7 1.2 -0.2
v 6.7 1.3 -0.2
v 6.9 0.7 -0.2
v 6.9 0.9 -0.2
v 6.6 0.4 0.2
v 6.7 0.4 0.2
v 6.5 0.4 0.1
v 6.6 0.4 0.1
v 6.7 0.4 0.1
v 6.8 0.4 0.1
v 6.5 0.4 2.23517e-008
v 6.6 0.4 2.23517e-008
v 6.7 0.4 2.23517e-008
v 6.5 0.4 -0.1
v 6.6 0.4 -0.1
v 6.7 0.4 -0.1
v 6.8 0.4 -0.1
v 6.8 0.6 2.23517e-008
v 6.9 0.6 2.23517e-008
v 6.6 0.6 -0.1
v 6.7 0.6 -0.1
v 6.8 0.6 -0.1
v 6.9 0.6 -0.1
v 6.6 0.6 -0.2
v 6.7 0.6 -0.2
v 6.7 0.7 -0.1
v 6.9 0.7 -0.1
v 6.7 0.7 -0.2
v 6.9 0.7 -0.2
v 6.7 1.1 0.2
v 6.8 1.1 0.2
v 6.7 1.1 0.1
v 6.8 1.1 0.1
v 6.4 1.1 -0.1
v 6.5 1.1 -0.1
v 6.4 1.1 -0.2
v 6.5 1.1 -0.2
v 6.5 1.2 -0.1
v 6.7 1.2 -0.1
v 6.5 1.2 -0.2
v 6.7 1.2 -0.2
v 6.5 1.3 0.2
v 6.6 1.3 0.2
v 6.5 1.3 0.1
v 6.6 1.3 0.1
v 6.6 1.4 0.8
v 6.7 1.4 0.8
v 6.6 1.4 0.7
v 6.7 1.4 0.7
v 6.6 1.4 0.6
v 6.7 1.4 0.6
v 6.5 1.4 0.4
v 6.6 1.4 0.4
v 6.7 1.4 0.4
v 6.8 1.4 0.4
v 6.5 1.4 0.2
v 6.6 1.4 0.2
v 6.7 1.4 0.2
v 6.8 1.4 0.2
v 7 1.4 0.2
v 6.8 1.4 0.1
v 6.9 1.4 0.1
v 7 1.4 0.1
v 6.8 1.4 2.23517e-008
v 6.9 1.4 2.23517e-008
v 6.5 1.5 0.7
v 6.6 1.5 0.7
v 6.7 1.5 0.7
v 6.8 1.5 0.7
v 6.6 1.5 0.6
v 6.7 1.5 0.6
v 6.5 1.5 0.4
v 6.6 1.5 0.4
v 6.7 1.5 0.4
v 6.8 1.5 0.4
v 6.8 0.8 2.23517e-008
v 6.9 0.8 2.23517e-008
v 6.6 0.8 -0.1
v 6.7 0.8 -0.1
v 6.8 0.8 -0.1
v 6.9 0.8 -0.1
v 6.6 0.8 -0.2
v 6.7 0.8 -0.2
v 6.7 0.9 -0.1
v 6.8 0.9 -0.1
v 6.9 0.9 -0.1
v 6.7 0.9 -0.2
v 6.9 0.9 -0.2
v 6.7 1.2 2.23517e-008
v 6.8 1.2 2.23517e-008
v 6.7 1.2 -0.1
v 6.8 1.2 -0.1
v 6.6 1.3 2.23517e-008
v 6.7 1.3 2.23517e-008
v 6.4 1.3 -0.1
v 6.5 1.3 -0.1
v 6.6 1.3 -0.1
v 6.4 1.3 -0.2
v 6.7 1.3 -0.2
v 6.5 1.4 2.23517e-008
v 6.6 1.4 2.23517e-008
v 6.5 1.4 -0.1
v 6.6 1.4 -0.1
v 6.9 1.5 0.2
v 7 1.5 0.2
v 6.8 1.5 0.1
v 6.9 1.5 0.1
v 7 1.5 0.1
v 6.8 1.5 2.23517e-008
v 6.9 1.5 2.23517e-008
v 6.6 1.6 0.8
v 6.7 1.6 0.8
v 6.5 1.6 0.7
v 6.6 1.6 0.7
v 6.7 1.6 0.7
v 6.8 1.6 0.7
v 6.5 1.6 0.6
v 6.6 1.6 0.6
v 6.7 1.6 0.6
v 6.8 1.6 0.6
v 6.5 1.6 0.2
v 6.6 1.6 0.2
v 6.7 1.6 0.2
v 6.8 1.6 0.2
v 6.9 1.6 0.2
v 6.5 1.6 0.1
v 6.6 1.6 0.1
v 6.8 1.6 0.1
v 6.9 1.6 0.1
v 6.5 1.6 2.23517e-008
v 6.7 1.6 2.23517e-008
v 6.8 1.6 2.23517e-008
v 6.5 1.7 0.6
v 6.8 1.7 0.6
v 6.5 1.7 0.2
v 6.8 1.7 0.2

# faces
f 3/1/1 2/1/1 1/1/1
f 4/1/1 2/1/1 3/1/1
f 8/1/1 6/1/1 5/1/1
f 8/4/1 7/4/1 6/4/1
f 9/4/1 7/4/1 8/4/1
f 10/1/1 8/1/1 5/1/1
f 10/1/1 9/1/1 8/1/1
f 11/1/1 9/1/1 10/1/1
f 12/3/1 11/3/1 10/3/1
f 13/1/1 9/1/1 11/1/1
f 13/3/1 11/3/1 12/3/1
f 14/4/1 13/4/1 12/4/1
f 15/1/1 9/1/1 13/1/1
f 15/4/1 13/4/1 14/4/1
f 16/1/1 9/1/1 15/1/1
f 17/1/1 15/1/1 14/1/1
f 17/1/1 16/1/1 15/1/1
f 18/1/1 16/1/1 17/1/1
f 20/1/1 17/1/1 14/1/1
f 21/4/1 18/4/1 17/4/1
f 23/1/1 20/1/1 19/1/1
f 24/1/1 17/1/1 20/1/1
f 24/4/1 21/4/1 17/4/1
f 24/1/1 20/1/1 23/1/1
f 25/4/1 21/4/1 24/4/1
f 27/1/1 23/1/1 22/1/1
f 27/1/1 24/1/1 23/1/1
f 28/1/1 24/1/1 27/1/1
f 29/1/1 24/1/1 28/1/1
f 30/1/1 27/1/1 26/1/1
f 30/1/1 28/1/1 27/1/1
f 31/1/1 28/1/1 30/1/1
f 32/1/1 28/1/1 31/1/1
f 33/3/1 29/3/1 28/3/1
f 33/1/1 28/1/1 32/1/1
f 34/3/1 29/3/1 33/3/1
f 35/1/1 32/1/1 31/1/1
f 36/1/1 32/1/1 35/1/1
f 39/4/1 38/4/1 37/4/1
f 40/4/1 38/4/1 39/4/1
f 43/1/1 42/1/1 41/1/1
f 44/1/1 42/1/1 43/1/1
f 45/3/1 44/3/1 43/3/1
f 46/3/1 44/3/1 45/3/1
f 47/1/1 40/1/1 39/1/1
f 48/1/1 47/1/1 39/1/1
f 49/1/1 47/1/1 48/1/1
f 50/4/1 49/4/1 48/4/1
f 51/4/1 49/4/1 50/4/1
f 52/1/1 51/1/1 50/1/1
f 53/1/1 51/1/1 52/1/1
f 54/4/1 53/4/1 52/4/1
f 55/4/1 53/4/1 54/4/1
f 59/1/1 57/1/1 56/1/1
f 59/4/1 58/4/1 57/4/1
f 60/4/1 58/4/1 59/4/1
f 61/1/1 59/1/1 56/1/1
f 62/1/1 59/1/1 61/1/1
f 65/1/1 64/1/1 63/1/1
f 66/1/1 64/1/1 65/1/1
f 67/1/2 68/1/2 69/1/2
f 69/1/2 68/1/2 70/1/2
f 71/4/2 72/4/2 73/4/2
f 73/4/2 72/4/2 74/4/2
f 75/4/2 76/4/2 77/4/2
f 77/4/2 76/4/2 78/4/2
f 79/1/2 80/1/2 81/1/2
f 81/1/2 80/1/2 82/1/2
f 77/1/2 78/1/2 83/1/2
f 83/1/2 78/1/2 84/1/2
f 83/4/2 84/4/2 85/4/2
f 85/4/2 84/4/2 86/4/2
f 87/1/2 88/1/2 90/1/2
f 88/1/2 89/1/2 90/1/2
f 90/1/2 89/1/2 91/1/2
f 92/1/2 93/1/2 95/1/2
f 93/4/2 94/4/2 95/4/2
f 95/4/2 94/4/2 96/4/2
f 92/1/2 95/1/2 97/1/2
f 97/1/2 95/1/2 98/1/2
f 99/4/2 100/4/2 101/4/2
f 101/4/2 100/4/2 102/4/2
f 101/1/2 102/1/2 103/1/2
f 103/1/2 102/1/2 104/1/2
f 101/1/2 103/1/2 105/1/2
f 101/1/2 105/1/2 107/1/2
f 105/4/2 106/4/2 107/4/2
f 107/4/2 106/4/2 108/4/2
f 101/1/2 107/1/2 110/1/2
f 107/1/2 108/1/2 110/1/2
f 110/1/2 108/1/2 111/1/2
f 109/1/2 110/1/2 111/1/2
f 111/1/2 108/1/2 112/1/2
f 109/1/2 111/1/2 114/1/2
f 114/1/2 111/1/2 115/1/2
f 115/1/2 111/1/2 116/1/2
f 113/1/2 114/1/2 118/1/2
f 118/1/2 114/1/2 119/1/2
f 117/1/2 118/1/2 122/1/2
f 118/1/2 119/1/2 122/1/2
f 122/1/2 119/1/2 123/1/2
f 123/1/2 119/1/2 124/1/2
f 120/1/2 121/1/2 125/1/2
f 125/1/2 121/1/2 126/1/2
f 123/1/2 124/1/2 127/1/2
f 127/1/2 124/1/2 128/1/2
f 129/4/2 130/4/2 131/4/2
f 129/4/2 131/4/2 133/4/2
f 131/1/2 132/1/2 134/1/2
f 133/4/2 131/4/2 134/4/2
f 134/1/2 132/1/2 135/1/2
f 135/1/2 132/1/2 136/1/2
f 137/1/2 138/1/2 140/1/2
f 140/1/2 138/1/2 141/1/2
f 139/1/2 140/1/2 142/1/2
f 142/1/2 140/1/2 143/1/2
f 144/4/2 145/4/2 146/4/2
f 146/4/2 145/4/2 147/4/2
f 150/1/3 149/1/3 148/1/3
f 151/1/3 149/1/3 150/1/3
f 154/1/3 153/1/3 152/1/3
f 155/1/3 153/1/3 154/1/3
f 158/1/3 157/1/3 156/1/3
f 159/1/3 157/1/3 158/1/3
f 162/1/3 161/1/3 160/1/3
f 163/1/3 161/1/3 162/1/3
f 164/1/3 161/1/3 163/1/3
f 165/1/3 161/1/3 164/1/3
f 168/1/3 167/1/3 166/1/3
f 169/1/3 167/1/3 168/1/3
f 170/4/3 169/4/3 168/4/3
f 171/4/3 169/4/3 170/4/3
f 172/1/3 171/1/3 170/1/3
f 173/1/3 171/1/3 172/1/3
f 181/1/3 175/1/3 174/1/3
f 182/1/3 175/1/3 181/1/3
f 183/4/3 177/4/3 176/4/3
f 184/1/3 178/1/3 177/1/3
f 184/4/3 177/4/3 183/4/3
f 185/4/3 179/4/3 178/4/3
f 185/1/3 178/1/3 184/1/3
f 186/1/3 180/1/3 179/1/3
f 186/4/3 179/4/3 185/4/3
f 187/4/3 181/4/3 180/4/3
f 187/1/3 180/1/3 186/1/3
f 188/2/3 182/2/3 181/2/3
f 188/4/3 181/4/3 187/4/3
f 189/2/3 182/2/3 188/2/3
f 190/1/3 189/1/3 188/1/3
f 190/1/3 188/1/3 187/1/3
f 190/1/3 187/1/3 186/1/3
f 191/1/3 189/1/3 190/1/3
f 194/1/3 193/1/3 192/1/3
f 194/4/3 192/4/3 191/4/3
f 195/1/3 193/1/3 194/1/3
f 196/4/3 194/4/3 191/4/3
f 197/4/3 194/4/3 196/4/3
f 203/1/3 199/1/3 198/1/3
f 204/1/3 199/1/3 203/1/3
f 205/3/3 200/3/3 199/3/3
f 205/1/3 199/1/3 204/1/3
f 206/4/3 201/4/3 200/4/3
f 206/3/3 200/3/3 205/3/3
f 207/1/3 202/1/3 201/1/3
f 207/4/3 201/4/3 206/4/3
f 208/1/3 202/1/3 207/1/3
f 209/1/3 202/1/3 208/1/3
f 214/4/3 211/4/3 210/4/3
f 215/1/3 213/1/3 212/1/3
f 215/4/3 211/4/3 214/4/3
f 215/1/3 212/1/3 211/1/3
f 216/1/3 213/1/3 215/1/3
f 219/4/3 218/4/3 217/4/3
f 220/4/3 218/4/3 219/4/3
f 223/1/3 222/1/3 221/1/3
f 224/1/3 222/1/3 223/1/3
f 225/1/3 222/1/3 224/1/3
f 228/1/3 227/1/3 226/1/3
f 229/1/3 227/1/3 228/1/3
f 230/4/4 231/4/4 232/4/4
f 232/4/4 231/4/4 233/4/4
f 234/1/4 235/1/4 236/1/4
f 236/1/4 235/1/4 237/1/4
f 237/1/4 235/1/4 238/1/4
f 238/1/4 235/1/4 239/1/4
f 240/1/4 241/1/4 243/1/4
f 243/1/4 241/1/4 244/1/4
f 242/4/4 243/4/4 245/4/4
f 245/4/4 243/4/4 246/4/4
f 247/1/4 248/1/4 251/1/4
f 248/3/4 249/3/4 252/3/4
f 251/1/4 248/1/4 252/1/4
f 250/3/4 251/3/4 254/3/4
f 251/3/4 252/3/4 254/3/4
f 254/3/4 252/3/4 255/3/4
f 252/3/4 249/3/4 256/3/4
f 255/3/4 252/3/4 256/3/4
f 256/3/4 249/3/4 257/3/4
f 254/1/4 255/1/4 258/1/4
f 253/1/4 254/1/4 258/1/4
f 255/4/4 256/4/4 259/4/4
f 258/1/4 255/1/4 259/1/4
f 256/1/4 257/1/4 260/1/4
f 259/4/4 256/4/4 260/4/4
f 260/1/4 257/1/4 261/1/4
f 259/1/4 260/1/4 262/1/4
f 262/1/4 260/1/4 263/1/4
f 264/4/4 265/4/4 270/4/4
f 265/1/4 266/1/4 271/1/4
f 270/4/4 265/4/4 271/4/4
f 266/1/4 267/1/4 271/1/4
f 271/1/4 267/1/4 272/1/4
f 272/1/4 267/1/4 273/1/4
f 273/1/4 267/1/4 274/1/4
f 274/1/4 267/1/4 275/1/4
f 268/4/4 269/4/4 276/4/4
f 276/4/4 269/4/4 277/4/4
f 270/1/4 271/1/4 278/1/4
f 271/1/4 272/1/4 278/1/4
f 278/1/4 272/1/4 279/1/4
f 279/1/4 272/1/4 280/1/4
f 274/3/4 275/3/4 282/3/4
f 275/1/4 267/1/4 283/1/4
f 282/3/4 275/3/4 283/3/4
f 283/1/4 267/1/4 284/1/4
f 278/4/4 279/4/4 285/4/4
f 279/1/4 280/1/4 286/1/4
f 285/4/4 279/4/4 286/4/4
f 280/4/4 281/4/4 287/4/4
f 286/1/4 280/1/4 287/1/4
f 283/1/4 284/1/4 288/1/4
f 288/1/4 284/1/4 289/1/4
f 287/4/4 281/4/4 290/4/4
f 290/4/4 281/4/4 291/4/4
f 292/1/4 293/1/4 294/1/4
f 294/1/4 293/1/4 295/1/4
f 296/1/4 297/1/4 299/1/4
f 297/3/4 298/3/4 300/3/4
f 299/1/4 297/1/4 300/1/4
f 300/3/4 298/3/4 301/3/4
f 295/1/4 293/1/4 303/1/4
f 303/1/4 293/1/4 304/1/4
f 301/1/4 302/1/4 305/1/4
f 300/1/4 301/1/4 305/1/4
f 305/1/4 302/1/4 306/1/4
f 310/4/5 308/4/5 307/4/5
f 311/4/5 308/4/5 310/4/5
f 313/1/5 310/1/5 309/1/5
f 314/4/5 312/4/5 311/4/5
f 314/1/5 310/1/5 313/1/5
f 314/4/5 311/4/5 310/4/5
f 315/4/5 312/4/5 314/4/5
f 316/4/5 314/4/5 313/4/5
f 317/1/5 315/1/5 314/1/5
f 317/4/5 314/4/5 316/4/5
f 318/4/5 312/4/5 315/4/5
f 318/1/5 315/1/5 317/1/5
f 319/4/5 312/4/5 318/4/5
f 324/4/5 321/4/5 320/4/5
f 325/4/5 321/4/5 324/4/5
f 326/1/5 323/1/5 322/1/5
f 327/1/5 323/1/5 326/1/5
f 330/1/5 329/1/5 328/1/5
f 331/1/5 329/1/5 330/1/5
f 334/1/5 333/1/5 332/1/5
f 335/1/5 333/1/5 334/1/5
f 338/1/5 337/1/5 336/1/5
f 339/1/5 337/1/5 338/1/5
f 342/1/5 341/1/5 340/1/5
f 343/1/5 341/1/5 342/1/5
f 346/1/5 345/1/5 344/1/5
f 347/1/5 345/1/5 346/1/5
f 350/1/5 349/1/5 348/1/5
f 351/1/5 349/1/5 350/1/5
f 352/4/5 351/4/5 350/4/5
f 353/4/5 351/4/5 352/4/5
f 358/1/5 355/1/5 354/1/5
f 359/4/5 356/4/5 355/4/5
f 359/1/5 355/1/5 358/1/5
f 360/1/5 357/1/5 356/1/5
f 360/4/5 356/4/5 359/4/5
f 361/1/5 357/1/5 360/1/5
f 363/4/5 362/4/5 361/4/5
f 364/4/5 362/4/5 363/4/5
f 365/4/5 362/4/5 364/4/5
f 366/1/5 364/1/5 363/1/5
f 367/1/5 364/1/5 366/1/5
f 372/1/5 369/1/5 368/1/5
f 373/1/5 371/1/5 370/1/5
f 374/1/5 372/1/5 368/1/5
f 375/4/5 373/4/5 372/4/5
f 375/1/5 372/1/5 374/1/5
f 376/1/5 371/1/5 373/1/5
f 376/4/5 373/4/5 375/4/5
f 377/1/5 371/1/5 376/1/5
f 378/4/6 379/4/6 382/4/6
f 382/4/6 379/4/6 383/4/6
f 380/3/6 381/3/6 384/3/6
f 384/3/6 381/3/6 385/3/6
f 386/1/6 387/1/6 389/1/6
f 387/1/6 388/1/6 389/1/6
f 389/1/6 388/1/6 390/1/6
f 391/1/6 392/1/6 393/1/6
f 393/1/6 392/1/6 394/1/6
f 395/1/6 396/1/6 399/1/6
f 397/1/6 398/1/6 400/1/6
f 398/1/6 399/1/6 400/1/6
f 399/1/6 396/1/6 401/1/6
f 400/1/6 399/1/6 401/1/6
f 402/4/6 403/4/6 404/4/6
f 404/4/6 403/4/6 405/4/6
f 406/4/6 407/4/6 409/4/6
f 409/4/6 407/4/6 410/4/6
f 408/1/6 409/1/6 411/1/6
f 411/1/6 409/1/6 412/1/6
f 413/1/6 414/1/6 416/1/6
f 416/1/6 414/1/6 417/1/6
f 415/1/6 416/1/6 419/1/6
f 416/4/6 417/4/6 420/4/6
f 419/1/6 416/1/6 420/1/6
f 417/1/6 418/1/6 421/1/6
f 420/4/6 417/4/6 421/4/6
f 421/1/6 418/1/6 422/1/6
f 423/1/6 424/1/6 428/1/6
f 424/3/6 425/3/6 429/3/6
f 428/1/6 424/1/6 429/1/6
f 425/1/6 426/1/6 430/1/6
f 426/1/6 427/1/6 430/1/6
f 430/1/6 427/1/6 431/1/6
f 428/3/6 429/3/6 432/3/6
f 429/3/6 425/3/6 433/3/6
f 432/3/6 429/3/6 433/3/6
f 425/1/6 430/1/6 433/1/6
f 433/1/6 430/1/6 434/1/6
f 435/1/6 436/1/6 437/1/6
f 437/1/6 436/1/6 438/1/6
